<svg xmlns="http://www.w3.org/2000/svg" width="1200" height="675" viewBox="0 0 1200 675">
  <defs>
    <linearGradient id="goldGrad" x1="0%" y1="0%" x2="100%" y2="100%">
      <stop offset="0%" stop-color="#E3A868"/>
      <stop offset="45%" stop-color="#C17B3A"/>
      <stop offset="100%" stop-color="#7A4419"/>
    </linearGradient>
    <radialGradient id="glowPurple" cx="15%" cy="20%" r="55%">
      <stop offset="0%" stop-color="#7C3AED" stop-opacity="0.55"/>
      <stop offset="100%" stop-color="#7C3AED" stop-opacity="0"/>
    </radialGradient>
    <radialGradient id="glowBlue" cx="90%" cy="10%" r="55%">
      <stop offset="0%" stop-color="#2563EB" stop-opacity="0.5"/>
      <stop offset="100%" stop-color="#2563EB" stop-opacity="0"/>
    </radialGradient>
    <radialGradient id="glowRed" cx="85%" cy="92%" r="55%">
      <stop offset="0%" stop-color="#DC2626" stop-opacity="0.4"/>
      <stop offset="100%" stop-color="#DC2626" stop-opacity="0"/>
    </radialGradient>
    <radialGradient id="glowYellow" cx="12%" cy="90%" r="50%">
      <stop offset="0%" stop-color="#EAB308" stop-opacity="0.32"/>
      <stop offset="100%" stop-color="#EAB308" stop-opacity="0"/>
    </radialGradient>
    </defs>
  
    <rect width="1200" height="675" fill="#0A0A0B"/>
    <rect width="1200" height="675" fill="url(#glowPurple)"/>
    <rect width="1200" height="675" fill="url(#glowBlue)"/>
    <rect width="1200" height="675" fill="url(#glowRed)"/>
    <rect width="1200" height="675" fill="url(#glowYellow)"/>
    
  <g><path d="M190.5,544.2 L195.5,544.2 L195.5,486.6" stroke="#E3A868" stroke-width="1" fill="none" opacity="0.18"/>
<circle cx="195.5" cy="486.6" r="2.4" fill="#E3A868" opacity="0.45"/>
<path d="M923.4,95.8 L1020.3,95.8 L1020.3,113.3" stroke="#E3A868" stroke-width="1" fill="none" opacity="0.24"/>
<circle cx="1020.3" cy="113.3" r="2.3" fill="#E3A868" opacity="0.25"/>
<path d="M538.8,469.3 L553.0,469.3 L553.0,574.5" stroke="#E3A868" stroke-width="1" fill="none" opacity="0.11"/>
<circle cx="553.0" cy="574.5" r="3.0" fill="#E3A868" opacity="0.26"/>
<path d="M646.4,598.8 L605.9,598.8 L605.9,636.2" stroke="#E3A868" stroke-width="1" fill="none" opacity="0.11"/>
<circle cx="605.9" cy="636.2" r="2.3" fill="#E3A868" opacity="0.32"/>
<path d="M530.4,335.0 L536.4,335.0 L536.4,390.9" stroke="#E3A868" stroke-width="1" fill="none" opacity="0.18"/>
<circle cx="536.4" cy="390.9" r="2.0" fill="#E3A868" opacity="0.34"/>
<path d="M64.1,538.4 L-15.6,538.4 L-15.6,508.9" stroke="#E3A868" stroke-width="1" fill="none" opacity="0.28"/>
<circle cx="-15.6" cy="508.9" r="1.9" fill="#E3A868" opacity="0.51"/>
<path d="M175.4,238.0 L159.4,238.0 L159.4,149.6" stroke="#E3A868" stroke-width="1" fill="none" opacity="0.18"/>
<circle cx="159.4" cy="149.6" r="3.1" fill="#E3A868" opacity="0.50"/>
<path d="M790.7,220.5 L704.0,220.5 L704.0,167.3" stroke="#E3A868" stroke-width="1" fill="none" opacity="0.19"/>
<circle cx="704.0" cy="167.3" r="3.0" fill="#E3A868" opacity="0.43"/>
<path d="M78.7,184.4 L98.9,184.4 L98.9,118.5" stroke="#E3A868" stroke-width="1" fill="none" opacity="0.20"/>
<circle cx="98.9" cy="118.5" r="1.9" fill="#E3A868" opacity="0.46"/>
<path d="M795.4,262.9 L725.3,262.9 L725.3,291.2" stroke="#E3A868" stroke-width="1" fill="none" opacity="0.19"/>
<circle cx="725.3" cy="291.2" r="2.8" fill="#E3A868" opacity="0.37"/>
<path d="M588.5,57.6 L674.4,57.6 L674.4,81.7" stroke="#E3A868" stroke-width="1" fill="none" opacity="0.21"/>
<circle cx="674.4" cy="81.7" r="3.2" fill="#E3A868" opacity="0.37"/>
<path d="M230.8,338.8 L324.1,338.8 L324.1,328.3" stroke="#E3A868" stroke-width="1" fill="none" opacity="0.25"/>
<circle cx="324.1" cy="328.3" r="2.5" fill="#E3A868" opacity="0.32"/>
<path d="M615.4,606.7 L551.7,606.7 L551.7,572.8" stroke="#E3A868" stroke-width="1" fill="none" opacity="0.20"/>
<circle cx="551.7" cy="572.8" r="2.0" fill="#E3A868" opacity="0.54"/>
<path d="M46.4,506.3 L90.1,506.3 L90.1,414.1" stroke="#E3A868" stroke-width="1" fill="none" opacity="0.25"/>
<circle cx="90.1" cy="414.1" r="2.8" fill="#E3A868" opacity="0.41"/>
<path d="M668.7,293.5 L763.4,293.5 L763.4,328.4" stroke="#E3A868" stroke-width="1" fill="none" opacity="0.14"/>
<circle cx="763.4" cy="328.4" r="2.5" fill="#E3A868" opacity="0.40"/>
<path d="M583.1,252.3 L539.0,252.3 L539.0,316.3" stroke="#E3A868" stroke-width="1" fill="none" opacity="0.21"/>
<circle cx="539.0" cy="316.3" r="2.6" fill="#E3A868" opacity="0.39"/>
<path d="M71.3,176.6 L107.1,176.6 L107.1,249.2" stroke="#E3A868" stroke-width="1" fill="none" opacity="0.24"/>
<circle cx="107.1" cy="249.2" r="3.0" fill="#E3A868" opacity="0.49"/>
<path d="M954.4,191.9 L1001.9,191.9 L1001.9,118.9" stroke="#E3A868" stroke-width="1" fill="none" opacity="0.10"/>
<circle cx="1001.9" cy="118.9" r="1.7" fill="#E3A868" opacity="0.25"/>
<path d="M886.3,188.5 L950.9,188.5 L950.9,241.7" stroke="#E3A868" stroke-width="1" fill="none" opacity="0.11"/>
<circle cx="950.9" cy="241.7" r="2.2" fill="#E3A868" opacity="0.30"/>
<path d="M630.7,140.0 L617.8,140.0 L617.8,228.9" stroke="#E3A868" stroke-width="1" fill="none" opacity="0.16"/>
<circle cx="617.8" cy="228.9" r="2.3" fill="#E3A868" opacity="0.39"/>
<path d="M66.5,270.0 L19.7,270.0 L19.7,295.3" stroke="#E3A868" stroke-width="1" fill="none" opacity="0.26"/>
<circle cx="19.7" cy="295.3" r="1.8" fill="#E3A868" opacity="0.40"/>
<path d="M274.2,400.4 L291.1,400.4 L291.1,362.5" stroke="#E3A868" stroke-width="1" fill="none" opacity="0.13"/>
<circle cx="291.1" cy="362.5" r="1.6" fill="#E3A868" opacity="0.47"/>
<path d="M219.5,459.2 L185.4,459.2 L185.4,388.9" stroke="#E3A868" stroke-width="1" fill="none" opacity="0.28"/>
<circle cx="185.4" cy="388.9" r="2.0" fill="#E3A868" opacity="0.49"/>
<path d="M618.6,172.8 L578.3,172.8 L578.3,118.5" stroke="#E3A868" stroke-width="1" fill="none" opacity="0.16"/>
<circle cx="578.3" cy="118.5" r="2.5" fill="#E3A868" opacity="0.44"/>
<path d="M105.8,217.7 L205.1,217.7 L205.1,197.4" stroke="#E3A868" stroke-width="1" fill="none" opacity="0.25"/>
<circle cx="205.1" cy="197.4" r="2.1" fill="#E3A868" opacity="0.34"/>
<path d="M1092.0,482.6 L1042.2,482.6 L1042.2,511.6" stroke="#E3A868" stroke-width="1" fill="none" opacity="0.26"/>
<circle cx="1042.2" cy="511.6" r="1.6" fill="#E3A868" opacity="0.26"/></g>
  <g transform="translate(600.0,337.5)">
    
<g stroke="url(#goldGrad)" stroke-width="5" fill="none" stroke-linecap="round" stroke-linejoin="round">
  <rect x="-170" y="-120" width="340" height="240" rx="14"/>
  <line x1="-170" y1="-72" x2="170" y2="-72"/>
  <circle cx="-142" cy="-96" r="6" fill="url(#goldGrad)" stroke="none"/>
  <circle cx="-118" cy="-96" r="6" fill="url(#goldGrad)" stroke="none"/>
  <circle cx="-94" cy="-96" r="6" fill="url(#goldGrad)" stroke="none"/>
  <rect x="-146" y="-46" width="292" height="80" rx="6" opacity="0.85"/>
  <rect x="-146" y="46" width="132" height="46" rx="6" opacity="0.6"/>
  <rect x="14" y="46" width="132" height="46" rx="6" opacity="0.6"/>
</g>
<circle cx="150" cy="-96" r="46" fill="none" stroke="url(#goldGrad)" stroke-width="4" opacity="0.55"/>
<path d="M182 -64 L214 -32" stroke="url(#goldGrad)" stroke-width="6" stroke-linecap="round" opacity="0.55"/>

  </g>
</svg>