<svg xmlns="http://www.w3.org/2000/svg" width="1200" height="675" viewBox="0 0 1200 675">
  <defs>
    <linearGradient id="goldGrad" x1="0%" y1="0%" x2="100%" y2="100%">
      <stop offset="0%" stop-color="#E3A868"/>
      <stop offset="45%" stop-color="#C17B3A"/>
      <stop offset="100%" stop-color="#7A4419"/>
    </linearGradient>
    <radialGradient id="glowPurple" cx="15%" cy="20%" r="55%">
      <stop offset="0%" stop-color="#7C3AED" stop-opacity="0.55"/>
      <stop offset="100%" stop-color="#7C3AED" stop-opacity="0"/>
    </radialGradient>
    <radialGradient id="glowBlue" cx="90%" cy="10%" r="55%">
      <stop offset="0%" stop-color="#2563EB" stop-opacity="0.5"/>
      <stop offset="100%" stop-color="#2563EB" stop-opacity="0"/>
    </radialGradient>
    <radialGradient id="glowRed" cx="85%" cy="92%" r="55%">
      <stop offset="0%" stop-color="#DC2626" stop-opacity="0.4"/>
      <stop offset="100%" stop-color="#DC2626" stop-opacity="0"/>
    </radialGradient>
    <radialGradient id="glowYellow" cx="12%" cy="90%" r="50%">
      <stop offset="0%" stop-color="#EAB308" stop-opacity="0.32"/>
      <stop offset="100%" stop-color="#EAB308" stop-opacity="0"/>
    </radialGradient>
    </defs>
  
    <rect width="1200" height="675" fill="#0A0A0B"/>
    <rect width="1200" height="675" fill="url(#glowPurple)"/>
    <rect width="1200" height="675" fill="url(#glowBlue)"/>
    <rect width="1200" height="675" fill="url(#glowRed)"/>
    <rect width="1200" height="675" fill="url(#glowYellow)"/>
    
  <g><path d="M1110.8,604.0 L1153.8,604.0 L1153.8,619.9" stroke="#E3A868" stroke-width="1" fill="none" opacity="0.23"/>
<circle cx="1153.8" cy="619.9" r="2.9" fill="#E3A868" opacity="0.45"/>
<path d="M385.1,400.5 L321.9,400.5 L321.9,350.4" stroke="#E3A868" stroke-width="1" fill="none" opacity="0.18"/>
<circle cx="321.9" cy="350.4" r="1.9" fill="#E3A868" opacity="0.37"/>
<path d="M849.8,631.9 L924.0,631.9 L924.0,607.5" stroke="#E3A868" stroke-width="1" fill="none" opacity="0.15"/>
<circle cx="924.0" cy="607.5" r="2.3" fill="#E3A868" opacity="0.26"/>
<path d="M70.7,316.6 L43.0,316.6 L43.0,377.1" stroke="#E3A868" stroke-width="1" fill="none" opacity="0.19"/>
<circle cx="43.0" cy="377.1" r="3.0" fill="#E3A868" opacity="0.42"/>
<path d="M304.5,54.2 L281.9,54.2 L281.9,98.3" stroke="#E3A868" stroke-width="1" fill="none" opacity="0.28"/>
<circle cx="281.9" cy="98.3" r="2.4" fill="#E3A868" opacity="0.45"/>
<path d="M243.7,571.7 L270.1,571.7 L270.1,484.2" stroke="#E3A868" stroke-width="1" fill="none" opacity="0.24"/>
<circle cx="270.1" cy="484.2" r="3.1" fill="#E3A868" opacity="0.49"/>
<path d="M436.2,623.7 L486.1,623.7 L486.1,611.5" stroke="#E3A868" stroke-width="1" fill="none" opacity="0.23"/>
<circle cx="486.1" cy="611.5" r="2.8" fill="#E3A868" opacity="0.39"/>
<path d="M634.0,331.6 L700.8,331.6 L700.8,297.4" stroke="#E3A868" stroke-width="1" fill="none" opacity="0.16"/>
<circle cx="700.8" cy="297.4" r="2.9" fill="#E3A868" opacity="0.51"/>
<path d="M1047.7,314.3 L952.5,314.3 L952.5,271.2" stroke="#E3A868" stroke-width="1" fill="none" opacity="0.19"/>
<circle cx="952.5" cy="271.2" r="2.8" fill="#E3A868" opacity="0.32"/>
<path d="M403.6,456.2 L455.7,456.2 L455.7,545.7" stroke="#E3A868" stroke-width="1" fill="none" opacity="0.26"/>
<circle cx="455.7" cy="545.7" r="2.0" fill="#E3A868" opacity="0.34"/>
<path d="M1112.2,460.2 L1036.0,460.2 L1036.0,458.2" stroke="#E3A868" stroke-width="1" fill="none" opacity="0.21"/>
<circle cx="1036.0" cy="458.2" r="2.6" fill="#E3A868" opacity="0.34"/>
<path d="M272.8,344.6 L349.3,344.6 L349.3,311.0" stroke="#E3A868" stroke-width="1" fill="none" opacity="0.25"/>
<circle cx="349.3" cy="311.0" r="1.7" fill="#E3A868" opacity="0.47"/>
<path d="M1056.6,153.9 L1055.1,153.9 L1055.1,109.8" stroke="#E3A868" stroke-width="1" fill="none" opacity="0.15"/>
<circle cx="1055.1" cy="109.8" r="2.6" fill="#E3A868" opacity="0.32"/>
<path d="M1020.6,103.2 L921.8,103.2 L921.8,89.3" stroke="#E3A868" stroke-width="1" fill="none" opacity="0.14"/>
<circle cx="921.8" cy="89.3" r="2.0" fill="#E3A868" opacity="0.51"/>
<path d="M513.7,466.6 L577.7,466.6 L577.7,479.6" stroke="#E3A868" stroke-width="1" fill="none" opacity="0.22"/>
<circle cx="577.7" cy="479.6" r="1.9" fill="#E3A868" opacity="0.27"/>
<path d="M1109.1,55.1 L1103.8,55.1 L1103.8,13.9" stroke="#E3A868" stroke-width="1" fill="none" opacity="0.25"/>
<circle cx="1103.8" cy="13.9" r="2.0" fill="#E3A868" opacity="0.30"/>
<path d="M245.8,451.4 L213.4,451.4 L213.4,479.8" stroke="#E3A868" stroke-width="1" fill="none" opacity="0.13"/>
<circle cx="213.4" cy="479.8" r="3.2" fill="#E3A868" opacity="0.26"/>
<path d="M425.5,406.1 L423.2,406.1 L423.2,358.2" stroke="#E3A868" stroke-width="1" fill="none" opacity="0.11"/>
<circle cx="423.2" cy="358.2" r="2.1" fill="#E3A868" opacity="0.38"/>
<path d="M897.9,480.3 L973.7,480.3 L973.7,426.6" stroke="#E3A868" stroke-width="1" fill="none" opacity="0.23"/>
<circle cx="973.7" cy="426.6" r="3.0" fill="#E3A868" opacity="0.39"/>
<path d="M292.6,433.2 L273.5,433.2 L273.5,476.3" stroke="#E3A868" stroke-width="1" fill="none" opacity="0.26"/>
<circle cx="273.5" cy="476.3" r="2.3" fill="#E3A868" opacity="0.29"/>
<path d="M695.2,273.8 L645.3,273.8 L645.3,269.2" stroke="#E3A868" stroke-width="1" fill="none" opacity="0.15"/>
<circle cx="645.3" cy="269.2" r="3.1" fill="#E3A868" opacity="0.43"/>
<path d="M510.1,50.7 L463.6,50.7 L463.6,33.0" stroke="#E3A868" stroke-width="1" fill="none" opacity="0.11"/>
<circle cx="463.6" cy="33.0" r="1.7" fill="#E3A868" opacity="0.30"/>
<path d="M147.4,417.9 L38.7,417.9 L38.7,412.2" stroke="#E3A868" stroke-width="1" fill="none" opacity="0.28"/>
<circle cx="38.7" cy="412.2" r="3.1" fill="#E3A868" opacity="0.32"/>
<path d="M538.1,189.2 L467.7,189.2 L467.7,143.8" stroke="#E3A868" stroke-width="1" fill="none" opacity="0.23"/>
<circle cx="467.7" cy="143.8" r="2.9" fill="#E3A868" opacity="0.33"/>
<path d="M513.8,353.1 L556.2,353.1 L556.2,354.4" stroke="#E3A868" stroke-width="1" fill="none" opacity="0.12"/>
<circle cx="556.2" cy="354.4" r="2.3" fill="#E3A868" opacity="0.47"/>
<path d="M309.8,99.4 L333.1,99.4 L333.1,150.5" stroke="#E3A868" stroke-width="1" fill="none" opacity="0.19"/>
<circle cx="333.1" cy="150.5" r="1.9" fill="#E3A868" opacity="0.39"/></g>
  <g transform="translate(600.0,337.5)">
    
<g stroke="url(#goldGrad)" stroke-width="5" fill="none" stroke-linecap="round" stroke-linejoin="round">
  <rect x="-110" y="-90" width="220" height="180" rx="46"/>
  <circle cx="-42" cy="-6" r="14" fill="url(#goldGrad)" stroke="none"/>
  <circle cx="42" cy="-6" r="14" fill="url(#goldGrad)" stroke="none"/>
  <path d="M-40 48 Q0 74 40 48" opacity="0.8"/>
  <line x1="0" y1="-90" x2="0" y2="-140"/>
  <circle cx="0" cy="-156" r="12" fill="url(#goldGrad)" stroke="none"/>
</g>
<g stroke="#E3A868" stroke-width="1.4" fill="none" opacity="0.55">
  <path d="M-110 -20 L-190 -20 L-190 -70"/>
  <path d="M110 20 L190 20 L190 70"/>
  <path d="M-110 40 L-220 40"/>
  <path d="M110 -40 L220 -40"/>
</g>
<circle cx="-190" cy="-70" r="5" fill="#E3A868" opacity="0.7"/>
<circle cx="190" cy="70" r="5" fill="#E3A868" opacity="0.7"/>
<circle cx="-220" cy="40" r="5" fill="#E3A868" opacity="0.7"/>
<circle cx="220" cy="-40" r="5" fill="#E3A868" opacity="0.7"/>

  </g>
</svg>