<svg xmlns="http://www.w3.org/2000/svg" width="1200" height="675" viewBox="0 0 1200 675">
  <defs>
    <linearGradient id="goldGrad" x1="0%" y1="0%" x2="100%" y2="100%">
      <stop offset="0%" stop-color="#E3A868"/>
      <stop offset="45%" stop-color="#C17B3A"/>
      <stop offset="100%" stop-color="#7A4419"/>
    </linearGradient>
    <radialGradient id="glowPurple" cx="15%" cy="20%" r="55%">
      <stop offset="0%" stop-color="#7C3AED" stop-opacity="0.55"/>
      <stop offset="100%" stop-color="#7C3AED" stop-opacity="0"/>
    </radialGradient>
    <radialGradient id="glowBlue" cx="90%" cy="10%" r="55%">
      <stop offset="0%" stop-color="#2563EB" stop-opacity="0.5"/>
      <stop offset="100%" stop-color="#2563EB" stop-opacity="0"/>
    </radialGradient>
    <radialGradient id="glowRed" cx="85%" cy="92%" r="55%">
      <stop offset="0%" stop-color="#DC2626" stop-opacity="0.4"/>
      <stop offset="100%" stop-color="#DC2626" stop-opacity="0"/>
    </radialGradient>
    <radialGradient id="glowYellow" cx="12%" cy="90%" r="50%">
      <stop offset="0%" stop-color="#EAB308" stop-opacity="0.32"/>
      <stop offset="100%" stop-color="#EAB308" stop-opacity="0"/>
    </radialGradient>
    </defs>
  
    <rect width="1200" height="675" fill="#0A0A0B"/>
    <rect width="1200" height="675" fill="url(#glowPurple)"/>
    <rect width="1200" height="675" fill="url(#glowBlue)"/>
    <rect width="1200" height="675" fill="url(#glowRed)"/>
    <rect width="1200" height="675" fill="url(#glowYellow)"/>
    
  <g><path d="M306.5,363.8 L250.2,363.8 L250.2,423.8" stroke="#E3A868" stroke-width="1" fill="none" opacity="0.11"/>
<circle cx="250.2" cy="423.8" r="2.6" fill="#E3A868" opacity="0.25"/>
<path d="M978.0,194.3 L988.7,194.3 L988.7,303.5" stroke="#E3A868" stroke-width="1" fill="none" opacity="0.25"/>
<circle cx="988.7" cy="303.5" r="2.4" fill="#E3A868" opacity="0.39"/>
<path d="M755.8,129.6 L689.1,129.6 L689.1,54.1" stroke="#E3A868" stroke-width="1" fill="none" opacity="0.23"/>
<circle cx="689.1" cy="54.1" r="2.4" fill="#E3A868" opacity="0.45"/>
<path d="M111.7,491.1 L60.4,491.1 L60.4,458.1" stroke="#E3A868" stroke-width="1" fill="none" opacity="0.26"/>
<circle cx="60.4" cy="458.1" r="1.6" fill="#E3A868" opacity="0.39"/>
<path d="M845.1,562.9 L821.7,562.9 L821.7,461.1" stroke="#E3A868" stroke-width="1" fill="none" opacity="0.24"/>
<circle cx="821.7" cy="461.1" r="2.2" fill="#E3A868" opacity="0.38"/>
<path d="M1087.9,562.9 L1128.4,562.9 L1128.4,591.4" stroke="#E3A868" stroke-width="1" fill="none" opacity="0.27"/>
<circle cx="1128.4" cy="591.4" r="1.9" fill="#E3A868" opacity="0.38"/>
<path d="M741.8,219.1 L674.9,219.1 L674.9,216.1" stroke="#E3A868" stroke-width="1" fill="none" opacity="0.21"/>
<circle cx="674.9" cy="216.1" r="2.2" fill="#E3A868" opacity="0.43"/>
<path d="M1052.7,445.8 L1142.9,445.8 L1142.9,402.6" stroke="#E3A868" stroke-width="1" fill="none" opacity="0.22"/>
<circle cx="1142.9" cy="402.6" r="3.2" fill="#E3A868" opacity="0.30"/>
<path d="M1003.9,614.0 L1069.9,614.0 L1069.9,569.0" stroke="#E3A868" stroke-width="1" fill="none" opacity="0.14"/>
<circle cx="1069.9" cy="569.0" r="2.7" fill="#E3A868" opacity="0.50"/>
<path d="M682.4,209.5 L774.3,209.5 L774.3,248.3" stroke="#E3A868" stroke-width="1" fill="none" opacity="0.12"/>
<circle cx="774.3" cy="248.3" r="3.2" fill="#E3A868" opacity="0.49"/>
<path d="M499.7,129.7 L474.2,129.7 L474.2,220.0" stroke="#E3A868" stroke-width="1" fill="none" opacity="0.11"/>
<circle cx="474.2" cy="220.0" r="3.0" fill="#E3A868" opacity="0.43"/>
<path d="M90.3,467.5 L40.8,467.5 L40.8,556.3" stroke="#E3A868" stroke-width="1" fill="none" opacity="0.19"/>
<circle cx="40.8" cy="556.3" r="3.2" fill="#E3A868" opacity="0.55"/>
<path d="M386.8,85.8 L352.7,85.8 L352.7,61.0" stroke="#E3A868" stroke-width="1" fill="none" opacity="0.17"/>
<circle cx="352.7" cy="61.0" r="1.9" fill="#E3A868" opacity="0.43"/>
<path d="M214.9,65.2 L256.7,65.2 L256.7,19.5" stroke="#E3A868" stroke-width="1" fill="none" opacity="0.26"/>
<circle cx="256.7" cy="19.5" r="3.1" fill="#E3A868" opacity="0.36"/>
<path d="M555.7,349.4 L505.1,349.4 L505.1,285.2" stroke="#E3A868" stroke-width="1" fill="none" opacity="0.21"/>
<circle cx="505.1" cy="285.2" r="2.5" fill="#E3A868" opacity="0.53"/>
<path d="M607.9,296.6 L597.4,296.6 L597.4,240.9" stroke="#E3A868" stroke-width="1" fill="none" opacity="0.28"/>
<circle cx="597.4" cy="240.9" r="2.1" fill="#E3A868" opacity="0.41"/>
<path d="M654.2,46.8 L584.8,46.8 L584.8,87.8" stroke="#E3A868" stroke-width="1" fill="none" opacity="0.21"/>
<circle cx="584.8" cy="87.8" r="1.6" fill="#E3A868" opacity="0.44"/>
<path d="M107.3,413.3 L21.7,413.3 L21.7,431.7" stroke="#E3A868" stroke-width="1" fill="none" opacity="0.23"/>
<circle cx="21.7" cy="431.7" r="2.2" fill="#E3A868" opacity="0.47"/>
<path d="M64.8,76.0 L16.7,76.0 L16.7,-20.0" stroke="#E3A868" stroke-width="1" fill="none" opacity="0.18"/>
<circle cx="16.7" cy="-20.0" r="2.0" fill="#E3A868" opacity="0.43"/>
<path d="M398.4,256.6 L373.2,256.6 L373.2,317.4" stroke="#E3A868" stroke-width="1" fill="none" opacity="0.15"/>
<circle cx="373.2" cy="317.4" r="2.6" fill="#E3A868" opacity="0.36"/>
<path d="M904.9,56.0 L822.0,56.0 L822.0,17.5" stroke="#E3A868" stroke-width="1" fill="none" opacity="0.14"/>
<circle cx="822.0" cy="17.5" r="2.1" fill="#E3A868" opacity="0.49"/>
<path d="M307.3,151.5 L225.7,151.5 L225.7,186.7" stroke="#E3A868" stroke-width="1" fill="none" opacity="0.16"/>
<circle cx="225.7" cy="186.7" r="1.8" fill="#E3A868" opacity="0.35"/>
<path d="M973.6,300.9 L1005.5,300.9 L1005.5,260.0" stroke="#E3A868" stroke-width="1" fill="none" opacity="0.22"/>
<circle cx="1005.5" cy="260.0" r="2.1" fill="#E3A868" opacity="0.52"/>
<path d="M545.2,173.9 L601.1,173.9 L601.1,227.0" stroke="#E3A868" stroke-width="1" fill="none" opacity="0.25"/>
<circle cx="601.1" cy="227.0" r="1.9" fill="#E3A868" opacity="0.50"/>
<path d="M245.6,205.8 L275.5,205.8 L275.5,126.3" stroke="#E3A868" stroke-width="1" fill="none" opacity="0.16"/>
<circle cx="275.5" cy="126.3" r="2.9" fill="#E3A868" opacity="0.29"/>
<path d="M367.0,512.3 L358.5,512.3 L358.5,576.0" stroke="#E3A868" stroke-width="1" fill="none" opacity="0.18"/>
<circle cx="358.5" cy="576.0" r="2.3" fill="#E3A868" opacity="0.37"/></g>
  <g transform="translate(600.0,337.5)">
    
<g stroke="url(#goldGrad)" stroke-width="5" fill="none" stroke-linecap="round" stroke-linejoin="round">
  <path d="M-110 -60 L-130 140 Q-130 160 -110 160 L110 160 Q130 160 130 140 L110 -60 Z"/>
  <path d="M-60 -60 L-60 -96 Q-60 -140 0 -140 Q60 -140 60 -96 L60 -60"/>
  <line x1="-130" y1="-10" x2="130" y2="-10" opacity="0.5"/>
</g>
<g transform="translate(96,86)">
  <circle cx="0" cy="0" r="66" fill="#0A0A0B" stroke="url(#goldGrad)" stroke-width="5"/>
  <path d="M-28 2 L-8 22 L30 -22" stroke="url(#goldGrad)" stroke-width="7" fill="none" stroke-linecap="round" stroke-linejoin="round"/>
</g>

  </g>
</svg>