<svg xmlns="http://www.w3.org/2000/svg" width="900" height="700" viewBox="0 0 900 700">
  <defs>
    <linearGradient id="goldGrad" x1="0%" y1="0%" x2="100%" y2="100%">
      <stop offset="0%" stop-color="#E3A868"/>
      <stop offset="45%" stop-color="#C17B3A"/>
      <stop offset="100%" stop-color="#7A4419"/>
    </linearGradient>
    <radialGradient id="glowPurple" cx="15%" cy="20%" r="55%">
      <stop offset="0%" stop-color="#7C3AED" stop-opacity="0.5"/>
      <stop offset="100%" stop-color="#7C3AED" stop-opacity="0"/>
    </radialGradient>
    <radialGradient id="glowBlue" cx="90%" cy="10%" r="55%">
      <stop offset="0%" stop-color="#2563EB" stop-opacity="0.45"/>
      <stop offset="100%" stop-color="#2563EB" stop-opacity="0"/>
    </radialGradient>
    <radialGradient id="glowRed" cx="85%" cy="92%" r="55%">
      <stop offset="0%" stop-color="#DC2626" stop-opacity="0.35"/>
      <stop offset="100%" stop-color="#DC2626" stop-opacity="0"/>
    </radialGradient>
    <radialGradient id="glowYellow" cx="12%" cy="90%" r="50%">
      <stop offset="0%" stop-color="#EAB308" stop-opacity="0.28"/>
      <stop offset="100%" stop-color="#EAB308" stop-opacity="0"/>
    </radialGradient>
    </defs>
  
    <rect width="900" height="700" fill="#0A0A0B"/>
    <rect width="900" height="700" fill="url(#glowPurple)"/>
    <rect width="900" height="700" fill="url(#glowBlue)"/>
    <rect width="900" height="700" fill="url(#glowRed)"/>
    <rect width="900" height="700" fill="url(#glowYellow)"/>
    
  <g><path d="M840.8,37.5 L837.0,37.5 L837.0,-6.1" stroke="#E3A868" stroke-width="1" fill="none" opacity="0.10"/>
<circle cx="837.0" cy="-6.1" r="3.0" fill="#E3A868" opacity="0.47"/>
<path d="M602.3,578.7 L650.5,578.7 L650.5,578.6" stroke="#E3A868" stroke-width="1" fill="none" opacity="0.21"/>
<circle cx="650.5" cy="578.6" r="2.0" fill="#E3A868" opacity="0.30"/>
<path d="M251.2,176.3 L303.3,176.3 L303.3,111.6" stroke="#E3A868" stroke-width="1" fill="none" opacity="0.14"/>
<circle cx="303.3" cy="111.6" r="2.7" fill="#E3A868" opacity="0.48"/>
<path d="M459.6,178.1 L403.7,178.1 L403.7,194.1" stroke="#E3A868" stroke-width="1" fill="none" opacity="0.19"/>
<circle cx="403.7" cy="194.1" r="1.6" fill="#E3A868" opacity="0.32"/>
<path d="M508.5,625.3 L473.5,625.3 L473.5,580.0" stroke="#E3A868" stroke-width="1" fill="none" opacity="0.26"/>
<circle cx="473.5" cy="580.0" r="2.8" fill="#E3A868" opacity="0.36"/>
<path d="M823.8,42.0 L852.1,42.0 L852.1,76.3" stroke="#E3A868" stroke-width="1" fill="none" opacity="0.21"/>
<circle cx="852.1" cy="76.3" r="2.9" fill="#E3A868" opacity="0.42"/>
<path d="M270.8,346.8 L301.5,346.8 L301.5,320.4" stroke="#E3A868" stroke-width="1" fill="none" opacity="0.11"/>
<circle cx="301.5" cy="320.4" r="1.7" fill="#E3A868" opacity="0.35"/>
<path d="M736.0,385.2 L685.0,385.2 L685.0,421.5" stroke="#E3A868" stroke-width="1" fill="none" opacity="0.25"/>
<circle cx="685.0" cy="421.5" r="1.8" fill="#E3A868" opacity="0.32"/>
<path d="M227.6,229.2 L251.4,229.2 L251.4,182.4" stroke="#E3A868" stroke-width="1" fill="none" opacity="0.15"/>
<circle cx="251.4" cy="182.4" r="2.9" fill="#E3A868" opacity="0.34"/>
<path d="M92.3,610.8 L109.8,610.8 L109.8,552.2" stroke="#E3A868" stroke-width="1" fill="none" opacity="0.18"/>
<circle cx="109.8" cy="552.2" r="1.7" fill="#E3A868" opacity="0.33"/>
<path d="M735.6,623.9 L732.8,623.9 L732.8,573.2" stroke="#E3A868" stroke-width="1" fill="none" opacity="0.24"/>
<circle cx="732.8" cy="573.2" r="1.6" fill="#E3A868" opacity="0.48"/>
<path d="M163.0,350.0 L75.0,350.0 L75.0,360.5" stroke="#E3A868" stroke-width="1" fill="none" opacity="0.11"/>
<circle cx="75.0" cy="360.5" r="1.6" fill="#E3A868" opacity="0.46"/>
<path d="M508.4,325.9 L520.2,325.9 L520.2,259.3" stroke="#E3A868" stroke-width="1" fill="none" opacity="0.14"/>
<circle cx="520.2" cy="259.3" r="2.5" fill="#E3A868" opacity="0.24"/>
<path d="M37.5,243.2 L4.2,243.2 L4.2,198.3" stroke="#E3A868" stroke-width="1" fill="none" opacity="0.20"/>
<circle cx="4.2" cy="198.3" r="2.0" fill="#E3A868" opacity="0.42"/>
<path d="M530.2,229.5 L564.6,229.5 L564.6,158.4" stroke="#E3A868" stroke-width="1" fill="none" opacity="0.24"/>
<circle cx="564.6" cy="158.4" r="2.8" fill="#E3A868" opacity="0.22"/>
<path d="M592.1,252.8 L543.6,252.8 L543.6,293.7" stroke="#E3A868" stroke-width="1" fill="none" opacity="0.14"/>
<circle cx="543.6" cy="293.7" r="1.7" fill="#E3A868" opacity="0.50"/>
<path d="M308.0,614.3 L287.1,614.3 L287.1,566.4" stroke="#E3A868" stroke-width="1" fill="none" opacity="0.20"/>
<circle cx="287.1" cy="566.4" r="2.0" fill="#E3A868" opacity="0.42"/>
<path d="M315.6,67.8 L354.3,67.8 L354.3,140.5" stroke="#E3A868" stroke-width="1" fill="none" opacity="0.12"/>
<circle cx="354.3" cy="140.5" r="2.6" fill="#E3A868" opacity="0.45"/>
<path d="M513.7,244.3 L546.8,244.3 L546.8,218.3" stroke="#E3A868" stroke-width="1" fill="none" opacity="0.15"/>
<circle cx="546.8" cy="218.3" r="1.6" fill="#E3A868" opacity="0.43"/>
<path d="M490.1,339.9 L537.3,339.9 L537.3,308.6" stroke="#E3A868" stroke-width="1" fill="none" opacity="0.10"/>
<circle cx="537.3" cy="308.6" r="2.7" fill="#E3A868" opacity="0.44"/></g>
  <g transform="translate(450.0,340.0)">
    
<g stroke="url(#goldGrad)" stroke-width="5" fill="none" stroke-linecap="round" stroke-linejoin="round">
  <rect x="-100" y="-82" width="200" height="164" rx="42"/>
  <circle cx="-38" cy="-5" r="13" fill="url(#goldGrad)" stroke="none"/>
  <circle cx="38" cy="-5" r="13" fill="url(#goldGrad)" stroke="none"/>
  <path d="M-36 44 Q0 66 36 44" opacity="0.8"/>
  <line x1="0" y1="-82" x2="0" y2="-128"/>
  <circle cx="0" cy="-142" r="11" fill="url(#goldGrad)" stroke="none"/>
</g>
<g stroke="#E3A868" stroke-width="1.4" fill="none" opacity="0.55">
  <path d="M-100 -18 L-172 -18 L-172 -64"/>
  <path d="M100 18 L172 18 L172 64"/>
  <path d="M-100 36 L-200 36"/>
  <path d="M100 -36 L200 -36"/>
</g>
<circle cx="-172" cy="-64" r="5" fill="#E3A868" opacity="0.7"/>
<circle cx="172" cy="64" r="5" fill="#E3A868" opacity="0.7"/>
<circle cx="-200" cy="36" r="5" fill="#E3A868" opacity="0.7"/>
<circle cx="200" cy="-36" r="5" fill="#E3A868" opacity="0.7"/>

  </g>
</svg>