<svg xmlns="http://www.w3.org/2000/svg" width="900" height="700" viewBox="0 0 900 700">
  <defs>
    <linearGradient id="goldGrad" x1="0%" y1="0%" x2="100%" y2="100%">
      <stop offset="0%" stop-color="#E3A868"/>
      <stop offset="45%" stop-color="#C17B3A"/>
      <stop offset="100%" stop-color="#7A4419"/>
    </linearGradient>
    <radialGradient id="glowPurple" cx="15%" cy="20%" r="55%">
      <stop offset="0%" stop-color="#7C3AED" stop-opacity="0.5"/>
      <stop offset="100%" stop-color="#7C3AED" stop-opacity="0"/>
    </radialGradient>
    <radialGradient id="glowBlue" cx="90%" cy="10%" r="55%">
      <stop offset="0%" stop-color="#2563EB" stop-opacity="0.45"/>
      <stop offset="100%" stop-color="#2563EB" stop-opacity="0"/>
    </radialGradient>
    <radialGradient id="glowRed" cx="85%" cy="92%" r="55%">
      <stop offset="0%" stop-color="#DC2626" stop-opacity="0.35"/>
      <stop offset="100%" stop-color="#DC2626" stop-opacity="0"/>
    </radialGradient>
    <radialGradient id="glowYellow" cx="12%" cy="90%" r="50%">
      <stop offset="0%" stop-color="#EAB308" stop-opacity="0.28"/>
      <stop offset="100%" stop-color="#EAB308" stop-opacity="0"/>
    </radialGradient>
    </defs>
  
    <rect width="900" height="700" fill="#0A0A0B"/>
    <rect width="900" height="700" fill="url(#glowPurple)"/>
    <rect width="900" height="700" fill="url(#glowBlue)"/>
    <rect width="900" height="700" fill="url(#glowRed)"/>
    <rect width="900" height="700" fill="url(#glowYellow)"/>
    
  <g><path d="M119.7,479.7 L69.7,479.7 L69.7,408.8" stroke="#E3A868" stroke-width="1" fill="none" opacity="0.14"/>
<circle cx="69.7" cy="408.8" r="1.9" fill="#E3A868" opacity="0.43"/>
<path d="M583.1,223.9 L560.3,223.9 L560.3,171.9" stroke="#E3A868" stroke-width="1" fill="none" opacity="0.12"/>
<circle cx="560.3" cy="171.9" r="2.7" fill="#E3A868" opacity="0.28"/>
<path d="M787.2,259.1 L782.1,259.1 L782.1,338.2" stroke="#E3A868" stroke-width="1" fill="none" opacity="0.12"/>
<circle cx="782.1" cy="338.2" r="2.4" fill="#E3A868" opacity="0.37"/>
<path d="M587.8,135.6 L563.6,135.6 L563.6,101.5" stroke="#E3A868" stroke-width="1" fill="none" opacity="0.11"/>
<circle cx="563.6" cy="101.5" r="2.0" fill="#E3A868" opacity="0.28"/>
<path d="M851.5,288.4 L910.5,288.4 L910.5,284.8" stroke="#E3A868" stroke-width="1" fill="none" opacity="0.24"/>
<circle cx="910.5" cy="284.8" r="2.4" fill="#E3A868" opacity="0.41"/>
<path d="M123.7,407.0 L93.7,407.0 L93.7,373.5" stroke="#E3A868" stroke-width="1" fill="none" opacity="0.24"/>
<circle cx="93.7" cy="373.5" r="1.6" fill="#E3A868" opacity="0.36"/>
<path d="M192.8,319.7 L208.5,319.7 L208.5,397.0" stroke="#E3A868" stroke-width="1" fill="none" opacity="0.12"/>
<circle cx="208.5" cy="397.0" r="2.3" fill="#E3A868" opacity="0.45"/>
<path d="M105.2,209.6 L179.8,209.6 L179.8,222.9" stroke="#E3A868" stroke-width="1" fill="none" opacity="0.18"/>
<circle cx="179.8" cy="222.9" r="1.7" fill="#E3A868" opacity="0.25"/>
<path d="M433.6,468.6 L375.0,468.6 L375.0,455.6" stroke="#E3A868" stroke-width="1" fill="none" opacity="0.17"/>
<circle cx="375.0" cy="455.6" r="2.2" fill="#E3A868" opacity="0.39"/>
<path d="M109.7,333.7 L116.8,333.7 L116.8,416.0" stroke="#E3A868" stroke-width="1" fill="none" opacity="0.11"/>
<circle cx="116.8" cy="416.0" r="2.9" fill="#E3A868" opacity="0.26"/>
<path d="M620.9,395.7 L694.2,395.7 L694.2,404.6" stroke="#E3A868" stroke-width="1" fill="none" opacity="0.17"/>
<circle cx="694.2" cy="404.6" r="2.9" fill="#E3A868" opacity="0.32"/>
<path d="M508.3,631.0 L503.9,631.0 L503.9,682.5" stroke="#E3A868" stroke-width="1" fill="none" opacity="0.20"/>
<circle cx="503.9" cy="682.5" r="1.8" fill="#E3A868" opacity="0.35"/>
<path d="M245.1,278.3 L296.0,278.3 L296.0,289.6" stroke="#E3A868" stroke-width="1" fill="none" opacity="0.19"/>
<circle cx="296.0" cy="289.6" r="3.0" fill="#E3A868" opacity="0.30"/>
<path d="M816.3,259.3 L816.0,259.3 L816.0,296.2" stroke="#E3A868" stroke-width="1" fill="none" opacity="0.13"/>
<circle cx="816.0" cy="296.2" r="1.7" fill="#E3A868" opacity="0.28"/>
<path d="M763.3,199.3 L763.9,199.3 L763.9,267.5" stroke="#E3A868" stroke-width="1" fill="none" opacity="0.15"/>
<circle cx="763.9" cy="267.5" r="2.9" fill="#E3A868" opacity="0.43"/>
<path d="M339.7,389.1 L268.2,389.1 L268.2,339.9" stroke="#E3A868" stroke-width="1" fill="none" opacity="0.18"/>
<circle cx="268.2" cy="339.9" r="2.6" fill="#E3A868" opacity="0.46"/>
<path d="M337.8,275.8 L400.8,275.8 L400.8,259.6" stroke="#E3A868" stroke-width="1" fill="none" opacity="0.15"/>
<circle cx="400.8" cy="259.6" r="2.7" fill="#E3A868" opacity="0.48"/>
<path d="M544.7,188.3 L600.3,188.3 L600.3,163.7" stroke="#E3A868" stroke-width="1" fill="none" opacity="0.14"/>
<circle cx="600.3" cy="163.7" r="2.0" fill="#E3A868" opacity="0.25"/>
<path d="M198.5,473.0 L229.8,473.0 L229.8,511.1" stroke="#E3A868" stroke-width="1" fill="none" opacity="0.19"/>
<circle cx="229.8" cy="511.1" r="2.2" fill="#E3A868" opacity="0.33"/>
<path d="M689.5,194.3 L649.9,194.3 L649.9,237.2" stroke="#E3A868" stroke-width="1" fill="none" opacity="0.14"/>
<circle cx="649.9" cy="237.2" r="1.7" fill="#E3A868" opacity="0.26"/></g>
  <g transform="translate(450.0,340.0)">
    
<g stroke="url(#goldGrad)" stroke-width="5" fill="none" stroke-linecap="round" stroke-linejoin="round">
  <path d="M-100 -55 L-118 128 Q-118 146 -100 146 L100 146 Q118 146 118 128 L100 -55 Z"/>
  <path d="M-54 -55 L-54 -87 Q-54 -128 0 -128 Q54 -128 54 -87 L54 -55"/>
</g>
<path d="M0 40 C -34 40, -40 4, -18 -18 C 4 4, 34 4, 34 40 C 34 40, 18 40, 0 40 Z" fill="url(#goldGrad)" opacity="0.9"/>

  </g>
</svg>