<svg xmlns="http://www.w3.org/2000/svg" width="900" height="700" viewBox="0 0 900 700">
  <defs>
    <linearGradient id="goldGrad" x1="0%" y1="0%" x2="100%" y2="100%">
      <stop offset="0%" stop-color="#E3A868"/>
      <stop offset="45%" stop-color="#C17B3A"/>
      <stop offset="100%" stop-color="#7A4419"/>
    </linearGradient>
    <radialGradient id="glowPurple" cx="15%" cy="20%" r="55%">
      <stop offset="0%" stop-color="#7C3AED" stop-opacity="0.5"/>
      <stop offset="100%" stop-color="#7C3AED" stop-opacity="0"/>
    </radialGradient>
    <radialGradient id="glowBlue" cx="90%" cy="10%" r="55%">
      <stop offset="0%" stop-color="#2563EB" stop-opacity="0.45"/>
      <stop offset="100%" stop-color="#2563EB" stop-opacity="0"/>
    </radialGradient>
    <radialGradient id="glowRed" cx="85%" cy="92%" r="55%">
      <stop offset="0%" stop-color="#DC2626" stop-opacity="0.35"/>
      <stop offset="100%" stop-color="#DC2626" stop-opacity="0"/>
    </radialGradient>
    <radialGradient id="glowYellow" cx="12%" cy="90%" r="50%">
      <stop offset="0%" stop-color="#EAB308" stop-opacity="0.28"/>
      <stop offset="100%" stop-color="#EAB308" stop-opacity="0"/>
    </radialGradient>
    </defs>
  
    <rect width="900" height="700" fill="#0A0A0B"/>
    <rect width="900" height="700" fill="url(#glowPurple)"/>
    <rect width="900" height="700" fill="url(#glowBlue)"/>
    <rect width="900" height="700" fill="url(#glowRed)"/>
    <rect width="900" height="700" fill="url(#glowYellow)"/>
    
  <g><path d="M428.6,450.8 L407.2,450.8 L407.2,413.7" stroke="#E3A868" stroke-width="1" fill="none" opacity="0.16"/>
<circle cx="407.2" cy="413.7" r="1.5" fill="#E3A868" opacity="0.30"/>
<path d="M710.7,472.0 L657.9,472.0 L657.9,432.9" stroke="#E3A868" stroke-width="1" fill="none" opacity="0.12"/>
<circle cx="657.9" cy="432.9" r="2.5" fill="#E3A868" opacity="0.34"/>
<path d="M166.3,609.8 L240.9,609.8 L240.9,638.7" stroke="#E3A868" stroke-width="1" fill="none" opacity="0.21"/>
<circle cx="240.9" cy="638.7" r="1.6" fill="#E3A868" opacity="0.31"/>
<path d="M369.9,569.1 L408.0,569.1 L408.0,573.6" stroke="#E3A868" stroke-width="1" fill="none" opacity="0.18"/>
<circle cx="408.0" cy="573.6" r="2.9" fill="#E3A868" opacity="0.25"/>
<path d="M859.2,635.9 L903.5,635.9 L903.5,673.8" stroke="#E3A868" stroke-width="1" fill="none" opacity="0.15"/>
<circle cx="903.5" cy="673.8" r="1.7" fill="#E3A868" opacity="0.39"/>
<path d="M167.4,476.0 L209.5,476.0 L209.5,490.1" stroke="#E3A868" stroke-width="1" fill="none" opacity="0.16"/>
<circle cx="209.5" cy="490.1" r="2.7" fill="#E3A868" opacity="0.34"/>
<path d="M530.6,335.1 L503.2,335.1 L503.2,359.5" stroke="#E3A868" stroke-width="1" fill="none" opacity="0.25"/>
<circle cx="503.2" cy="359.5" r="2.6" fill="#E3A868" opacity="0.49"/>
<path d="M587.4,258.1 L539.8,258.1 L539.8,313.3" stroke="#E3A868" stroke-width="1" fill="none" opacity="0.12"/>
<circle cx="539.8" cy="313.3" r="2.5" fill="#E3A868" opacity="0.29"/>
<path d="M335.2,357.3 L358.2,357.3 L358.2,299.2" stroke="#E3A868" stroke-width="1" fill="none" opacity="0.23"/>
<circle cx="358.2" cy="299.2" r="1.5" fill="#E3A868" opacity="0.34"/>
<path d="M466.0,172.2 L415.4,172.2 L415.4,197.1" stroke="#E3A868" stroke-width="1" fill="none" opacity="0.12"/>
<circle cx="415.4" cy="197.1" r="2.7" fill="#E3A868" opacity="0.37"/>
<path d="M179.6,475.4 L228.4,475.4 L228.4,486.9" stroke="#E3A868" stroke-width="1" fill="none" opacity="0.20"/>
<circle cx="228.4" cy="486.9" r="2.0" fill="#E3A868" opacity="0.23"/>
<path d="M415.8,163.6 L403.6,163.6 L403.6,223.6" stroke="#E3A868" stroke-width="1" fill="none" opacity="0.18"/>
<circle cx="403.6" cy="223.6" r="2.9" fill="#E3A868" opacity="0.49"/>
<path d="M170.8,621.5 L140.9,621.5 L140.9,655.7" stroke="#E3A868" stroke-width="1" fill="none" opacity="0.25"/>
<circle cx="140.9" cy="655.7" r="2.6" fill="#E3A868" opacity="0.22"/>
<path d="M255.3,523.2 L229.0,523.2 L229.0,563.7" stroke="#E3A868" stroke-width="1" fill="none" opacity="0.11"/>
<circle cx="229.0" cy="563.7" r="1.5" fill="#E3A868" opacity="0.39"/>
<path d="M856.4,669.0 L820.1,669.0 L820.1,668.2" stroke="#E3A868" stroke-width="1" fill="none" opacity="0.23"/>
<circle cx="820.1" cy="668.2" r="2.0" fill="#E3A868" opacity="0.45"/>
<path d="M567.1,176.9 L506.7,176.9 L506.7,166.5" stroke="#E3A868" stroke-width="1" fill="none" opacity="0.14"/>
<circle cx="506.7" cy="166.5" r="2.4" fill="#E3A868" opacity="0.49"/>
<path d="M781.2,133.8 L759.9,133.8 L759.9,214.0" stroke="#E3A868" stroke-width="1" fill="none" opacity="0.25"/>
<circle cx="759.9" cy="214.0" r="1.9" fill="#E3A868" opacity="0.36"/>
<path d="M614.6,481.0 L626.0,481.0 L626.0,530.4" stroke="#E3A868" stroke-width="1" fill="none" opacity="0.21"/>
<circle cx="626.0" cy="530.4" r="1.9" fill="#E3A868" opacity="0.41"/>
<path d="M140.7,597.3 L98.3,597.3 L98.3,620.5" stroke="#E3A868" stroke-width="1" fill="none" opacity="0.26"/>
<circle cx="98.3" cy="620.5" r="2.2" fill="#E3A868" opacity="0.38"/>
<path d="M554.8,618.8 L629.4,618.8 L629.4,600.6" stroke="#E3A868" stroke-width="1" fill="none" opacity="0.19"/>
<circle cx="629.4" cy="600.6" r="2.1" fill="#E3A868" opacity="0.47"/></g>
  <g transform="translate(450.0,340.0)">
    
<g stroke="url(#goldGrad)" stroke-width="5" fill="none" stroke-linecap="round" stroke-linejoin="round">
  <rect x="-150" y="-105" width="300" height="210" rx="12"/>
  <line x1="-150" y1="-63" x2="150" y2="-63"/>
  <circle cx="-126" cy="-84" r="5" fill="url(#goldGrad)" stroke="none"/>
  <circle cx="-106" cy="-84" r="5" fill="url(#goldGrad)" stroke="none"/>
  <circle cx="-86" cy="-84" r="5" fill="url(#goldGrad)" stroke="none"/>
</g>
<text x="0" y="35" font-family="Georgia, serif" font-size="110" font-weight="700" fill="url(#goldGrad)" text-anchor="middle">A</text>

  </g>
</svg>