<svg xmlns="http://www.w3.org/2000/svg" width="900" height="700" viewBox="0 0 900 700">
  <defs>
    <linearGradient id="goldGrad" x1="0%" y1="0%" x2="100%" y2="100%">
      <stop offset="0%" stop-color="#E3A868"/>
      <stop offset="45%" stop-color="#C17B3A"/>
      <stop offset="100%" stop-color="#7A4419"/>
    </linearGradient>
    <radialGradient id="glowPurple" cx="15%" cy="20%" r="55%">
      <stop offset="0%" stop-color="#7C3AED" stop-opacity="0.5"/>
      <stop offset="100%" stop-color="#7C3AED" stop-opacity="0"/>
    </radialGradient>
    <radialGradient id="glowBlue" cx="90%" cy="10%" r="55%">
      <stop offset="0%" stop-color="#2563EB" stop-opacity="0.45"/>
      <stop offset="100%" stop-color="#2563EB" stop-opacity="0"/>
    </radialGradient>
    <radialGradient id="glowRed" cx="85%" cy="92%" r="55%">
      <stop offset="0%" stop-color="#DC2626" stop-opacity="0.35"/>
      <stop offset="100%" stop-color="#DC2626" stop-opacity="0"/>
    </radialGradient>
    <radialGradient id="glowYellow" cx="12%" cy="90%" r="50%">
      <stop offset="0%" stop-color="#EAB308" stop-opacity="0.28"/>
      <stop offset="100%" stop-color="#EAB308" stop-opacity="0"/>
    </radialGradient>
    </defs>
  
    <rect width="900" height="700" fill="#0A0A0B"/>
    <rect width="900" height="700" fill="url(#glowPurple)"/>
    <rect width="900" height="700" fill="url(#glowBlue)"/>
    <rect width="900" height="700" fill="url(#glowRed)"/>
    <rect width="900" height="700" fill="url(#glowYellow)"/>
    
  <g><path d="M247.6,468.6 L214.7,468.6 L214.7,393.8" stroke="#E3A868" stroke-width="1" fill="none" opacity="0.14"/>
<circle cx="214.7" cy="393.8" r="1.8" fill="#E3A868" opacity="0.26"/>
<path d="M219.1,499.8 L263.0,499.8 L263.0,546.6" stroke="#E3A868" stroke-width="1" fill="none" opacity="0.15"/>
<circle cx="263.0" cy="546.6" r="1.8" fill="#E3A868" opacity="0.34"/>
<path d="M733.6,419.4 L783.6,419.4 L783.6,423.9" stroke="#E3A868" stroke-width="1" fill="none" opacity="0.24"/>
<circle cx="783.6" cy="423.9" r="1.7" fill="#E3A868" opacity="0.45"/>
<path d="M707.1,558.9 L704.2,558.9 L704.2,471.7" stroke="#E3A868" stroke-width="1" fill="none" opacity="0.14"/>
<circle cx="704.2" cy="471.7" r="2.7" fill="#E3A868" opacity="0.46"/>
<path d="M438.9,513.2 L385.0,513.2 L385.0,490.2" stroke="#E3A868" stroke-width="1" fill="none" opacity="0.17"/>
<circle cx="385.0" cy="490.2" r="2.0" fill="#E3A868" opacity="0.31"/>
<path d="M128.6,554.6 L155.2,554.6 L155.2,469.4" stroke="#E3A868" stroke-width="1" fill="none" opacity="0.19"/>
<circle cx="155.2" cy="469.4" r="2.5" fill="#E3A868" opacity="0.43"/>
<path d="M143.3,463.2 L101.4,463.2 L101.4,478.7" stroke="#E3A868" stroke-width="1" fill="none" opacity="0.18"/>
<circle cx="101.4" cy="478.7" r="1.8" fill="#E3A868" opacity="0.29"/>
<path d="M415.9,417.5 L382.5,417.5 L382.5,443.2" stroke="#E3A868" stroke-width="1" fill="none" opacity="0.14"/>
<circle cx="382.5" cy="443.2" r="2.2" fill="#E3A868" opacity="0.29"/>
<path d="M193.4,264.5 L256.8,264.5 L256.8,296.0" stroke="#E3A868" stroke-width="1" fill="none" opacity="0.16"/>
<circle cx="256.8" cy="296.0" r="2.9" fill="#E3A868" opacity="0.42"/>
<path d="M813.7,57.7 L863.6,57.7 L863.6,119.3" stroke="#E3A868" stroke-width="1" fill="none" opacity="0.20"/>
<circle cx="863.6" cy="119.3" r="2.8" fill="#E3A868" opacity="0.26"/>
<path d="M377.3,585.7 L437.1,585.7 L437.1,533.8" stroke="#E3A868" stroke-width="1" fill="none" opacity="0.24"/>
<circle cx="437.1" cy="533.8" r="1.8" fill="#E3A868" opacity="0.32"/>
<path d="M631.9,117.7 L699.0,117.7 L699.0,105.5" stroke="#E3A868" stroke-width="1" fill="none" opacity="0.13"/>
<circle cx="699.0" cy="105.5" r="2.6" fill="#E3A868" opacity="0.39"/>
<path d="M517.9,408.4 L470.3,408.4 L470.3,466.4" stroke="#E3A868" stroke-width="1" fill="none" opacity="0.15"/>
<circle cx="470.3" cy="466.4" r="2.0" fill="#E3A868" opacity="0.27"/>
<path d="M604.6,101.8 L610.5,101.8 L610.5,140.2" stroke="#E3A868" stroke-width="1" fill="none" opacity="0.19"/>
<circle cx="610.5" cy="140.2" r="2.5" fill="#E3A868" opacity="0.37"/>
<path d="M62.6,311.3 L40.5,311.3 L40.5,344.8" stroke="#E3A868" stroke-width="1" fill="none" opacity="0.26"/>
<circle cx="40.5" cy="344.8" r="1.5" fill="#E3A868" opacity="0.25"/>
<path d="M283.3,202.1 L251.1,202.1 L251.1,179.6" stroke="#E3A868" stroke-width="1" fill="none" opacity="0.16"/>
<circle cx="251.1" cy="179.6" r="2.2" fill="#E3A868" opacity="0.45"/>
<path d="M34.8,244.2 L-53.5,244.2 L-53.5,246.2" stroke="#E3A868" stroke-width="1" fill="none" opacity="0.18"/>
<circle cx="-53.5" cy="246.2" r="2.3" fill="#E3A868" opacity="0.41"/>
<path d="M279.1,50.3 L194.0,50.3 L194.0,49.6" stroke="#E3A868" stroke-width="1" fill="none" opacity="0.14"/>
<circle cx="194.0" cy="49.6" r="2.6" fill="#E3A868" opacity="0.41"/>
<path d="M743.3,195.5 L696.8,195.5 L696.8,166.8" stroke="#E3A868" stroke-width="1" fill="none" opacity="0.15"/>
<circle cx="696.8" cy="166.8" r="1.9" fill="#E3A868" opacity="0.28"/>
<path d="M324.7,54.4 L292.9,54.4 L292.9,78.2" stroke="#E3A868" stroke-width="1" fill="none" opacity="0.20"/>
<circle cx="292.9" cy="78.2" r="2.6" fill="#E3A868" opacity="0.22"/></g>
  <g transform="translate(450.0,340.0)">
    
<g stroke="url(#goldGrad)" stroke-width="5" fill="none" stroke-linecap="round" stroke-linejoin="round">
  <rect x="-150" y="-105" width="300" height="210" rx="12"/>
  <line x1="-150" y1="-63" x2="150" y2="-63"/>
  <circle cx="-126" cy="-84" r="5" fill="url(#goldGrad)" stroke="none"/>
  <circle cx="-106" cy="-84" r="5" fill="url(#goldGrad)" stroke="none"/>
  <circle cx="-86" cy="-84" r="5" fill="url(#goldGrad)" stroke="none"/>
</g>
<g fill="url(#goldGrad)">
  <ellipse cx="0" cy="-28" rx="16" ry="26"/>
  <ellipse cx="0" cy="28" rx="16" ry="26"/>
  <ellipse cx="-28" cy="0" rx="26" ry="16"/>
  <ellipse cx="28" cy="0" rx="26" ry="16"/>
  <ellipse cx="-20" cy="-20" rx="18" ry="18" transform="rotate(45 -20 -20)"/>
  <ellipse cx="20" cy="20" rx="18" ry="18" transform="rotate(45 20 20)"/>
  <ellipse cx="-20" cy="20" rx="18" ry="18" transform="rotate(-45 -20 20)"/>
  <ellipse cx="20" cy="-20" rx="18" ry="18" transform="rotate(-45 20 -20)"/>
  <circle cx="0" cy="0" r="14" fill="#0A0A0B" stroke="url(#goldGrad)" stroke-width="4"/>
</g>

  </g>
</svg>