<svg xmlns="http://www.w3.org/2000/svg" width="900" height="700" viewBox="0 0 900 700">
  <defs>
    <linearGradient id="goldGrad" x1="0%" y1="0%" x2="100%" y2="100%">
      <stop offset="0%" stop-color="#E3A868"/>
      <stop offset="45%" stop-color="#C17B3A"/>
      <stop offset="100%" stop-color="#7A4419"/>
    </linearGradient>
    <radialGradient id="glowPurple" cx="15%" cy="20%" r="55%">
      <stop offset="0%" stop-color="#7C3AED" stop-opacity="0.5"/>
      <stop offset="100%" stop-color="#7C3AED" stop-opacity="0"/>
    </radialGradient>
    <radialGradient id="glowBlue" cx="90%" cy="10%" r="55%">
      <stop offset="0%" stop-color="#2563EB" stop-opacity="0.45"/>
      <stop offset="100%" stop-color="#2563EB" stop-opacity="0"/>
    </radialGradient>
    <radialGradient id="glowRed" cx="85%" cy="92%" r="55%">
      <stop offset="0%" stop-color="#DC2626" stop-opacity="0.35"/>
      <stop offset="100%" stop-color="#DC2626" stop-opacity="0"/>
    </radialGradient>
    <radialGradient id="glowYellow" cx="12%" cy="90%" r="50%">
      <stop offset="0%" stop-color="#EAB308" stop-opacity="0.28"/>
      <stop offset="100%" stop-color="#EAB308" stop-opacity="0"/>
    </radialGradient>
    </defs>
  
    <rect width="900" height="700" fill="#0A0A0B"/>
    <rect width="900" height="700" fill="url(#glowPurple)"/>
    <rect width="900" height="700" fill="url(#glowBlue)"/>
    <rect width="900" height="700" fill="url(#glowRed)"/>
    <rect width="900" height="700" fill="url(#glowYellow)"/>
    
  <g><path d="M410.0,388.3 L463.9,388.3 L463.9,360.5" stroke="#E3A868" stroke-width="1" fill="none" opacity="0.19"/>
<circle cx="463.9" cy="360.5" r="2.3" fill="#E3A868" opacity="0.27"/>
<path d="M460.0,433.1 L470.7,433.1 L470.7,394.4" stroke="#E3A868" stroke-width="1" fill="none" opacity="0.11"/>
<circle cx="470.7" cy="394.4" r="2.0" fill="#E3A868" opacity="0.45"/>
<path d="M612.5,56.8 L700.0,56.8 L700.0,47.0" stroke="#E3A868" stroke-width="1" fill="none" opacity="0.20"/>
<circle cx="700.0" cy="47.0" r="2.5" fill="#E3A868" opacity="0.26"/>
<path d="M42.6,368.2 L84.9,368.2 L84.9,384.8" stroke="#E3A868" stroke-width="1" fill="none" opacity="0.10"/>
<circle cx="84.9" cy="384.8" r="1.9" fill="#E3A868" opacity="0.35"/>
<path d="M400.0,569.2 L330.3,569.2 L330.3,560.7" stroke="#E3A868" stroke-width="1" fill="none" opacity="0.21"/>
<circle cx="330.3" cy="560.7" r="2.2" fill="#E3A868" opacity="0.35"/>
<path d="M263.7,668.5 L344.8,668.5 L344.8,666.3" stroke="#E3A868" stroke-width="1" fill="none" opacity="0.15"/>
<circle cx="344.8" cy="666.3" r="2.6" fill="#E3A868" opacity="0.28"/>
<path d="M272.8,74.9 L278.6,74.9 L278.6,18.2" stroke="#E3A868" stroke-width="1" fill="none" opacity="0.16"/>
<circle cx="278.6" cy="18.2" r="2.8" fill="#E3A868" opacity="0.49"/>
<path d="M741.7,30.3 L763.0,30.3 L763.0,112.7" stroke="#E3A868" stroke-width="1" fill="none" opacity="0.26"/>
<circle cx="763.0" cy="112.7" r="2.2" fill="#E3A868" opacity="0.33"/>
<path d="M91.4,432.9 L100.2,432.9 L100.2,383.8" stroke="#E3A868" stroke-width="1" fill="none" opacity="0.15"/>
<circle cx="100.2" cy="383.8" r="1.6" fill="#E3A868" opacity="0.49"/>
<path d="M666.8,105.5 L667.7,105.5 L667.7,146.1" stroke="#E3A868" stroke-width="1" fill="none" opacity="0.23"/>
<circle cx="667.7" cy="146.1" r="1.6" fill="#E3A868" opacity="0.27"/>
<path d="M499.8,316.4 L527.2,316.4 L527.2,386.4" stroke="#E3A868" stroke-width="1" fill="none" opacity="0.20"/>
<circle cx="527.2" cy="386.4" r="1.7" fill="#E3A868" opacity="0.25"/>
<path d="M383.4,166.2 L372.5,166.2 L372.5,254.0" stroke="#E3A868" stroke-width="1" fill="none" opacity="0.15"/>
<circle cx="372.5" cy="254.0" r="2.7" fill="#E3A868" opacity="0.47"/>
<path d="M207.0,282.3 L249.9,282.3 L249.9,226.6" stroke="#E3A868" stroke-width="1" fill="none" opacity="0.26"/>
<circle cx="249.9" cy="226.6" r="1.7" fill="#E3A868" opacity="0.28"/>
<path d="M247.0,524.5 L222.5,524.5 L222.5,569.6" stroke="#E3A868" stroke-width="1" fill="none" opacity="0.11"/>
<circle cx="222.5" cy="569.6" r="1.6" fill="#E3A868" opacity="0.38"/>
<path d="M234.1,414.8 L192.6,414.8 L192.6,458.1" stroke="#E3A868" stroke-width="1" fill="none" opacity="0.18"/>
<circle cx="192.6" cy="458.1" r="2.9" fill="#E3A868" opacity="0.38"/>
<path d="M757.9,147.0 L806.0,147.0 L806.0,217.0" stroke="#E3A868" stroke-width="1" fill="none" opacity="0.14"/>
<circle cx="806.0" cy="217.0" r="2.7" fill="#E3A868" opacity="0.27"/>
<path d="M651.1,631.9 L679.9,631.9 L679.9,714.2" stroke="#E3A868" stroke-width="1" fill="none" opacity="0.20"/>
<circle cx="679.9" cy="714.2" r="2.8" fill="#E3A868" opacity="0.34"/>
<path d="M117.2,54.8 L164.0,54.8 L164.0,43.6" stroke="#E3A868" stroke-width="1" fill="none" opacity="0.14"/>
<circle cx="164.0" cy="43.6" r="2.6" fill="#E3A868" opacity="0.45"/>
<path d="M531.0,217.8 L564.7,217.8 L564.7,284.4" stroke="#E3A868" stroke-width="1" fill="none" opacity="0.14"/>
<circle cx="564.7" cy="284.4" r="1.6" fill="#E3A868" opacity="0.38"/>
<path d="M746.0,423.2 L729.9,423.2 L729.9,507.1" stroke="#E3A868" stroke-width="1" fill="none" opacity="0.10"/>
<circle cx="729.9" cy="507.1" r="1.8" fill="#E3A868" opacity="0.30"/></g>
  <g transform="translate(450.0,340.0)">
    
<g stroke="url(#goldGrad)" stroke-width="5" fill="none" stroke-linecap="round" stroke-linejoin="round">
  <rect x="-150" y="-105" width="300" height="210" rx="12"/>
  <line x1="-150" y1="-63" x2="150" y2="-63"/>
  <circle cx="-126" cy="-84" r="5" fill="url(#goldGrad)" stroke="none"/>
  <circle cx="-106" cy="-84" r="5" fill="url(#goldGrad)" stroke="none"/>
  <circle cx="-86" cy="-84" r="5" fill="url(#goldGrad)" stroke="none"/>
</g>
<path d="M0 -30 C -26 5, -26 40, 0 40 C 26 40, 26 5, 0 -30 Z" fill="url(#goldGrad)" opacity="0.9"/>
<circle cx="-46" cy="-8" r="6" fill="url(#goldGrad)" opacity="0.6"/>
<circle cx="42" cy="10" r="8" fill="url(#goldGrad)" opacity="0.6"/>
<circle cx="-30" cy="30" r="4" fill="url(#goldGrad)" opacity="0.5"/>

  </g>
</svg>